<svg width="412" height="412" viewBox="0 0 412 412" fill="none" xmlns="http://www.w3.org/2000/svg">
<path d="M142.423 391.469C149.996 399.048 144.628 412 133.913 412H12.0292C5.38566 412 0 406.614 0 399.971V277.977C0 267.258 12.9626 261.892 20.539 269.475L142.423 391.469Z" fill="white"/>
<path d="M0 12.0292V122.606C0 131.269 8.88118 137.092 16.8258 133.637L271.137 23.0606C283.101 17.8585 279.386 0 266.34 0H12.0292C5.38565 0 0 5.38564 0 12.0292Z" fill="white"/>
<path d="M94.7427 218.399L194.982 318.727C200.932 324.683 211.002 322.841 214.459 315.165L296.585 132.845C301.132 122.751 290.782 112.393 280.685 116.933L98.3197 198.925C90.6424 202.377 88.7933 212.444 94.7427 218.399Z" fill="white"/>
<path d="M291.352 411.996H399.971C406.614 411.996 412 406.61 412 399.966V150.562C412 137.52 394.15 133.802 388.942 145.759L280.324 395.163C276.863 403.109 282.686 411.996 291.352 411.996Z" fill="white"/>
<path d="M316.754 20.535L391.465 95.2456C399.043 102.824 412 97.4565 412 86.7397V12.0292C412 5.38564 406.614 0 399.971 0H325.26C314.543 0 309.176 12.9571 316.754 20.535Z" fill="white"/>
<path d="M316.754 20.535L391.465 95.2456C399.043 102.824 412 97.4565 412 86.7397V12.0292C412 5.38564 406.614 0 399.971 0H325.26C314.543 0 309.176 12.9571 316.754 20.535Z" fill="url(#paint0_linear_1240_159)"/>
<defs>
<linearGradient id="paint0_linear_1240_159" x1="354.109" y1="65.6375" x2="431.416" y2="26.3181" gradientUnits="userSpaceOnUse">
<stop offset="0.132381" stop-color="#FF6A00"/>
<stop offset="0.634466" stop-color="#FF8C2B"/>
</linearGradient>
</defs>
</svg>
