<svg width="900" height="1192" viewBox="0 0 900 1192" fill="none" xmlns="http://www.w3.org/2000/svg">
<path d="M841.809 1025.09C859.984 1025.09 874.188 1030.29 884.421 1040.67C894.807 1051.06 900 1065.11 900 1082.83C900 1094.89 897.404 1105.66 892.211 1115.13C887.018 1124.6 879.687 1132.08 870.217 1137.58C860.748 1143.08 849.598 1145.83 836.769 1145.83C818.746 1145.83 804.542 1140.64 794.156 1130.25C783.923 1119.86 778.807 1105.89 778.807 1088.33C778.807 1076.11 781.403 1065.26 786.596 1055.79C791.789 1046.32 799.12 1038.84 808.59 1033.34C818.059 1027.84 829.132 1025.09 841.809 1025.09ZM838.372 1115.36C846.162 1115.36 852.348 1112.46 856.929 1106.65C861.664 1100.7 864.032 1092.75 864.032 1082.83C864.032 1074.27 861.97 1067.63 857.846 1062.9C853.722 1058.01 848.071 1055.56 840.893 1055.56C832.95 1055.56 826.612 1058.54 821.877 1064.5C817.295 1070.3 815.004 1078.17 815.004 1088.1C815.004 1096.65 816.99 1103.37 820.961 1108.26C825.085 1112.99 830.889 1115.36 838.372 1115.36Z" fill="white"/>
<path d="M684.621 1191.65C680.039 1191.65 674.999 1191.27 669.501 1190.5C664.155 1189.89 659.038 1188.9 654.151 1187.53C649.264 1186.15 645.063 1184.32 641.551 1182.03L650.027 1152.24C655.067 1154.84 660.566 1156.9 666.522 1158.43C672.632 1160.11 679.352 1160.95 686.683 1160.95C699.513 1160.95 708.6 1158.05 713.946 1152.24C719.292 1146.44 722.346 1137.35 723.11 1124.98L723.339 1122.92C715.091 1135.14 702.873 1141.25 686.683 1141.25C675.992 1141.25 666.904 1139.03 659.42 1134.6C651.936 1130.17 646.209 1123.99 642.238 1116.05C638.267 1108.1 636.281 1098.94 636.281 1088.55C636.281 1076.03 638.878 1065.03 644.071 1055.56C649.416 1046.09 656.595 1038.69 665.606 1033.34C674.617 1027.84 684.85 1025.09 696.305 1025.09C703.942 1025.09 710.586 1026.62 716.237 1029.68C722.041 1032.58 726.47 1036.47 729.525 1041.36L732.503 1027.38H757.704V1120.86C757.704 1136.74 754.649 1149.88 748.54 1160.26C742.583 1170.8 734.107 1178.67 723.11 1183.86C712.266 1189.05 699.436 1191.65 684.621 1191.65ZM699.971 1055.56C691.418 1055.56 684.698 1058.47 679.81 1064.27C674.923 1070.07 672.479 1077.4 672.479 1086.26C672.479 1094.05 674.388 1100.09 678.206 1104.36C682.177 1108.64 687.523 1110.78 694.243 1110.78C699.589 1110.78 704.4 1109.4 708.677 1106.65C712.953 1103.9 716.313 1100.09 718.757 1095.2C721.353 1090.31 722.652 1084.74 722.652 1078.47C722.652 1071.45 720.59 1065.87 716.466 1061.75C712.342 1057.63 706.844 1055.56 699.971 1055.56Z" fill="white"/>
<path d="M499.51 1143.54V1026.93H534.333L532.729 1051.9C537.464 1043.35 543.497 1036.78 550.828 1032.2C558.312 1027.46 566.636 1025.09 575.8 1025.09C589.699 1025.09 600.084 1029.83 606.957 1039.3C613.83 1048.61 617.19 1062.06 617.038 1079.62L616.58 1143.54H581.527L581.986 1082.14C582.138 1074.2 580.916 1068.16 578.32 1064.04C575.876 1059.76 571.905 1057.63 566.407 1057.63C561.825 1057.63 557.625 1059 553.806 1061.75C549.988 1064.35 546.628 1068.85 543.726 1075.27C540.977 1081.68 538.762 1090.46 537.082 1101.61C535.402 1112.76 534.486 1126.74 534.333 1143.54H499.51Z" fill="white"/>
<path d="M400.698 1191.65C395.963 1191.65 390.923 1191.27 385.578 1190.51C380.232 1189.9 375.039 1188.9 369.999 1187.53C365.111 1186.15 360.988 1184.32 357.627 1182.03L365.875 1152.25C371.221 1154.84 376.795 1156.91 382.599 1158.43C388.556 1160.11 395.276 1160.95 402.76 1160.95C415.437 1160.95 424.448 1158.05 429.794 1152.25C435.292 1146.44 438.423 1137.36 439.187 1124.98L439.874 1115.59C435.139 1123.69 429.183 1130.02 422.004 1134.61C414.826 1139.04 406.731 1141.25 397.72 1141.25C383.974 1141.25 373.664 1136.67 366.791 1127.5C359.918 1118.34 356.558 1105.51 356.711 1089.02L357.169 1026.93H392.221L391.763 1086.5C391.763 1093.37 392.985 1098.79 395.429 1102.76C397.873 1106.73 401.844 1108.72 407.342 1108.72C413.604 1108.72 419.026 1106.2 423.608 1101.16C428.19 1096.12 431.779 1087.72 434.376 1075.96C436.972 1064.04 438.423 1047.7 438.729 1026.93H472.635V1120.86C472.635 1145.3 466.144 1163.17 453.162 1174.47C440.332 1185.92 422.844 1191.65 400.698 1191.65Z" fill="white"/>
<path d="M325.853 1145.82C314.093 1145.82 305.005 1142.62 298.59 1136.2C292.328 1129.64 289.197 1120.17 289.197 1107.79V974H324.249V1105.27C324.249 1112.3 327.533 1115.81 334.101 1115.81C337.614 1115.81 340.592 1114.97 343.036 1113.29L351.512 1138.26C348.916 1140.4 345.327 1142.16 340.745 1143.53C336.163 1145.06 331.199 1145.82 325.853 1145.82Z" fill="white"/>
<path d="M59.7978 1025.09C67.1271 1025.09 73.6158 1026.62 79.2658 1029.68C84.9169 1032.58 89.2736 1036.47 92.3283 1041.36L95.3066 1027.39H120.507V1143.54H85.2224L86.3716 1126.13C77.9713 1139.26 65.522 1145.83 49.0269 1145.83C38.6414 1145.83 29.7841 1143.46 22.4531 1138.73C15.1222 1133.99 9.54378 1127.43 5.72547 1119.03C1.90754 1110.63 0.000391855 1101 0 1090.16C0 1077.18 2.67136 1065.79 8.01701 1056.02C13.3623 1046.25 20.5421 1038.69 29.5521 1033.34C38.5634 1027.84 48.6483 1025.09 59.7978 1025.09ZM262.127 1143.53H226.843L227.992 1126.35C219.592 1139.33 207.142 1145.83 190.647 1145.83C180.262 1145.83 171.404 1143.45 164.073 1138.72C156.743 1133.98 151.164 1127.42 147.346 1119.02C143.528 1110.62 141.62 1101 141.62 1090.15C141.62 1077.17 144.292 1065.79 149.637 1056.02C154.983 1046.25 162.161 1038.68 171.172 1033.34C180.184 1027.84 190.269 1025.09 201.418 1025.09C206.609 1025.09 211.419 1025.85 215.847 1027.38C220.277 1028.91 224.098 1031.05 227.305 1033.8L227.074 1026.92V974H262.127V1143.53ZM63.2317 1055.56C54.8325 1055.56 48.1887 1058.69 43.3014 1064.95C38.5667 1071.22 36.1956 1079.24 36.1956 1089.01C36.1956 1097.41 38.031 1103.91 41.6966 1108.49C45.5145 1113.07 50.6304 1115.36 57.0439 1115.36C64.8319 1115.36 71.4764 1112.15 76.9742 1105.74C82.6253 1099.33 85.4536 1090.92 85.4536 1080.53C85.4531 1072.75 83.4675 1066.64 79.497 1062.21C75.526 1057.78 70.1043 1055.56 63.2317 1055.56ZM204.852 1055.56C196.452 1055.56 189.809 1058.69 184.922 1064.95C180.188 1071.22 177.816 1079.23 177.816 1089.01C177.816 1097.41 179.652 1103.9 183.317 1108.48C187.135 1113.06 192.25 1115.35 198.664 1115.36C206.453 1115.36 213.097 1112.15 218.595 1105.73C224.245 1099.32 227.074 1090.92 227.074 1080.53C227.074 1072.74 225.088 1066.63 221.117 1062.2C217.146 1057.77 211.724 1055.56 204.852 1055.56Z" fill="url(#paint0_linear_1120_1677)"/>
<path d="M155.844 1H744.154C829.672 1 898.998 70.3259 898.998 155.844V744.156C898.998 829.674 829.672 899 744.154 899H155.844C70.326 899 1.0002 829.674 1 744.156V155.844C1.00022 70.3259 70.326 1.00005 155.844 1Z" fill="#1C1C1C" stroke="white" stroke-width="2"/>
<path d="M210.075 586.825L141.438 737.105C136.008 748.994 146.811 761.856 159.498 758.607L322.329 716.912C326.901 715.741 330.695 712.568 332.646 708.281L408.786 541.007C414.445 528.576 402.442 515.429 389.506 519.886L219.17 578.576C215.133 579.966 211.846 582.948 210.075 586.825Z" fill="#FEFEFF"/>
<path d="M522.107 372.96L315.133 439.736C302.894 443.685 291.399 431.982 295.608 419.858L336.149 303.077C337.646 298.766 340.966 295.328 345.23 293.674L738.753 141.082C750.286 136.61 762.194 146.682 759.654 158.762L670.05 584.982C669.054 589.72 665.902 593.724 661.524 595.814L515.196 665.663C503.674 671.163 490.775 661.262 493.155 648.745L542.217 390.647C544.422 379.048 533.369 369.327 522.107 372.96Z" fill="url(#paint1_linear_1120_1677)"/>
<path d="M516.426 760C568.191 760 642.819 758.928 689.186 755.823C735.553 752.719 734.548 665.2 688.156 652.25C641.763 639.3 533.401 710.403 516.426 760Z" fill="#FF501C"/>
<defs>
<linearGradient id="paint0_linear_1120_1677" x1="115.752" y1="1129.96" x2="294.022" y2="929.276" gradientUnits="userSpaceOnUse">
<stop offset="0.132381" stop-color="#FF501C"/>
<stop offset="0.634466" stop-color="#F6A01B"/>
</linearGradient>
<linearGradient id="paint1_linear_1120_1677" x1="634.256" y1="617.972" x2="710.903" y2="-181.692" gradientUnits="userSpaceOnUse">
<stop offset="0.132381" stop-color="#FF501C"/>
<stop offset="0.634466" stop-color="#F6A01B"/>
</linearGradient>
</defs>
</svg>
