<svg width="1241" height="256" viewBox="0 0 1241 256" fill="none" xmlns="http://www.w3.org/2000/svg">
<path d="M426.5 188V68H452V188H426.5ZM383 192C371.5 192 361 189.167 351.5 183.5C342 177.833 334.417 170.167 328.75 160.5C323.25 150.667 320.5 139.833 320.5 128C320.5 116 323.25 105.167 328.75 95.5C334.417 85.8333 341.917 78.1667 351.25 72.5C360.75 66.8333 371.333 64 383 64C394.167 64 404.25 66.8333 413.25 72.5C422.25 78.1667 429.417 85.8333 434.75 95.5C440.083 105.167 442.75 116 442.75 128C442.75 139.833 440.083 150.667 434.75 160.5C429.417 170.167 422.25 177.833 413.25 183.5C404.25 189.167 394.167 192 383 192ZM386.5 167.5C394 167.5 400.75 165.75 406.75 162.25C412.75 158.75 417.5 154 421 148C424.667 142 426.5 135.333 426.5 128C426.5 120.5 424.667 113.833 421 108C417.5 102 412.75 97.25 406.75 93.75C400.75 90.25 394 88.5 386.5 88.5C379 88.5 372.25 90.25 366.25 93.75C360.25 97.25 355.5 102 352 108C348.5 113.833 346.75 120.5 346.75 128C346.75 135.333 348.5 142 352 148C355.5 154 360.25 158.75 366.25 162.25C372.25 165.75 379 167.5 386.5 167.5Z" fill="white"/>
<path d="M578.488 188V8H603.988V188H578.488ZM534.238 192C522.738 192 512.238 189.167 502.738 183.5C493.238 177.833 485.655 170.167 479.988 160.5C474.488 150.667 471.738 139.833 471.738 128C471.738 116 474.488 105.167 479.988 95.5C485.655 85.8333 493.155 78.1667 502.488 72.5C511.988 66.8333 522.572 64 534.238 64C545.405 64 555.488 66.8333 564.488 72.5C573.488 78.1667 580.655 85.8333 585.988 95.5C591.322 105.167 593.988 116 593.988 128C593.988 139.833 591.322 150.667 585.988 160.5C580.655 170.167 573.488 177.833 564.488 183.5C555.488 189.167 545.405 192 534.238 192ZM537.738 167.5C545.238 167.5 551.988 165.75 557.988 162.25C563.988 158.75 568.738 154 572.238 148C575.905 142 577.738 135.333 577.738 128C577.738 120.5 575.905 113.833 572.238 108C568.738 102 563.988 97.25 557.988 93.75C551.988 90.25 545.238 88.5 537.738 88.5C530.238 88.5 523.488 90.25 517.488 93.75C511.488 97.25 506.738 102 503.238 108C499.738 113.833 497.988 120.5 497.988 128C497.988 135.333 499.738 142 503.238 148C506.738 154 511.488 158.75 517.488 162.25C523.488 165.75 530.238 167.5 537.738 167.5Z" fill="white"/>
<path d="M630.977 188V8H656.977V188H630.977Z" fill="white"/>
<path d="M704.355 247.5L780.105 68H808.605L730.355 247.5H704.355ZM729.605 188L668.605 68H699.355L756.105 188H729.605Z" fill="white"/>
<path d="M821.934 188V68H848.684V96L844.434 91.25C849.1 83.0833 855.267 76.5 862.934 71.5C870.767 66.5 879.434 64 888.934 64C899.267 64 908.517 66.6667 916.684 72C925.017 77.1667 931.6 84.1667 936.434 93C941.267 101.667 943.684 111.5 943.684 122.5V188H916.934V122.5C916.934 116.167 915.434 110.417 912.434 105.25C909.434 100.083 905.35 96 900.184 93C895.017 89.8333 889.267 88.25 882.934 88.25C876.6 88.25 870.85 89.9167 865.684 93.25C860.517 96.4167 856.35 100.833 853.184 106.5C850.184 112 848.684 118.167 848.684 125V188H821.934Z" fill="white"/>
<path d="M1032.96 250.5C1022.79 250.5 1013.12 248.333 1003.96 244C994.957 239.667 987.374 233.75 981.207 226.25C975.04 218.75 971.124 210.5 969.457 201.5H995.957C997.124 206 999.457 210.083 1002.96 213.75C1006.62 217.583 1011.04 220.583 1016.21 222.75C1021.54 224.917 1027.12 226 1032.96 226C1039.96 226 1046.21 224.25 1051.71 220.75C1057.37 217.25 1061.87 212.5 1065.21 206.5C1068.54 200.667 1070.21 194 1070.21 186.5V68H1096L1096.21 186.5C1096.21 198.333 1093.37 209.083 1087.71 218.75C1082.04 228.583 1074.46 236.333 1064.96 242C1055.46 247.667 1044.79 250.5 1032.96 250.5ZM1025.96 192C1014.46 192 1003.96 189.167 994.457 183.5C984.957 177.833 977.374 170.167 971.707 160.5C966.207 150.667 963.457 139.833 963.457 128C963.457 116 966.207 105.167 971.707 95.5C977.374 85.8333 984.874 78.1667 994.207 72.5C1003.71 66.8333 1014.29 64 1025.96 64C1037.12 64 1047.21 66.8333 1056.21 72.5C1065.21 78.1667 1072.37 85.8333 1077.71 95.5C1083.04 105.167 1085.71 116 1085.71 128C1085.71 139.833 1083.04 150.667 1077.71 160.5C1072.37 170.167 1065.21 177.833 1056.21 183.5C1047.21 189.167 1037.12 192 1025.96 192ZM1029.46 167.5C1036.96 167.5 1043.71 165.75 1049.71 162.25C1055.71 158.75 1060.46 154 1063.96 148C1067.62 142 1069.46 135.333 1069.46 128C1069.46 120.5 1067.62 113.833 1063.96 108C1060.46 102 1055.71 97.25 1049.71 93.75C1043.71 90.25 1036.96 88.5 1029.46 88.5C1021.96 88.5 1015.21 90.25 1009.21 93.75C1003.21 97.25 998.457 102 994.957 108C991.457 113.833 989.707 120.5 989.707 128C989.707 135.333 991.457 142 994.957 148C998.457 154 1003.21 158.75 1009.21 162.25C1015.21 165.75 1021.96 167.5 1029.46 167.5Z" fill="white"/>
<path d="M1176.17 192C1164.17 192 1153.25 189.167 1143.42 183.5C1133.58 177.833 1125.75 170.167 1119.92 160.5C1114.25 150.667 1111.42 139.833 1111.42 128C1111.42 116 1114.25 105.167 1119.92 95.5C1125.75 85.8333 1133.58 78.1667 1143.42 72.5C1153.25 66.8333 1164.08 64 1175.92 64C1188.08 64 1199 66.8333 1208.67 72.5C1218.5 78.1667 1226.25 85.8333 1231.92 95.5C1237.75 105.167 1240.67 116 1240.67 128C1240.67 139.833 1237.75 150.667 1231.92 160.5C1226.25 170.167 1218.5 177.833 1208.67 183.5C1199 189.167 1188.17 192 1176.17 192ZM1176.17 167.75C1183.33 167.75 1189.83 166 1195.67 162.5C1201.5 159 1206.17 154.25 1209.67 148.25C1213.17 142.083 1214.92 135.333 1214.92 128C1214.92 120.5 1213.17 113.75 1209.67 107.75C1206.17 101.75 1201.5 97 1195.67 93.5C1189.83 89.8333 1183.33 88 1176.17 88C1169 88 1162.42 89.8333 1156.42 93.5C1150.58 97 1145.92 101.75 1142.42 107.75C1138.92 113.75 1137.17 120.5 1137.17 128C1137.17 135.333 1138.92 142.083 1142.42 148.25C1145.92 154.25 1150.58 159 1156.42 162.5C1162.25 166 1168.83 167.75 1176.17 167.75Z" fill="white"/>
<path d="M88.496 243.243C93.2014 247.952 89.8658 256 83.2084 256H7.47445C3.34643 256 0 252.654 0 248.526V172.724C0 166.063 8.0544 162.729 12.7621 167.441L88.496 243.243Z" fill="white"/>
<path d="M0 7.47443V76.1823C0 81.5653 5.5184 85.1833 10.4549 83.0368L168.473 14.3289C175.907 11.0966 173.599 0 165.493 0H7.47445C3.34643 0 0 3.34641 0 7.47443Z" fill="white"/>
<path d="M58.8692 135.704L121.154 198.044C124.851 201.745 131.108 200.6 133.256 195.831L184.286 82.5443C187.111 76.2725 180.68 69.8367 174.406 72.6574L61.0918 123.604C56.3215 125.749 55.1725 132.004 58.8692 135.704Z" fill="white"/>
<path d="M181.035 255.997H248.526C252.654 255.997 256 252.651 256 248.523V93.5533C256 85.4494 244.909 83.139 241.673 90.5688L174.182 245.538C172.032 250.475 175.65 255.997 181.035 255.997Z" fill="white"/>
<path d="M196.818 12.7596L243.24 59.1817C247.949 63.8903 256 60.5555 256 53.8965V7.47443C256 3.34641 252.654 0 248.526 0H202.103C195.444 0 192.109 8.05101 196.818 12.7596Z" fill="white"/>
<path d="M196.818 12.7596L243.24 59.1817C247.949 63.8903 256 60.5555 256 53.8965V7.47443C256 3.34641 252.654 0 248.526 0H202.103C195.444 0 192.109 8.05101 196.818 12.7596Z" fill="url(#paint0_linear_1277_348)"/>
<defs>
<linearGradient id="paint0_linear_1277_348" x1="220.029" y1="40.7845" x2="268.064" y2="16.353" gradientUnits="userSpaceOnUse">
<stop offset="0.132381" stop-color="#FF6A00"/>
<stop offset="0.634466" stop-color="#FF8C2B"/>
</linearGradient>
</defs>
</svg>
