<svg width="2255" height="600" viewBox="0 0 2255 600" fill="none" xmlns="http://www.w3.org/2000/svg">
<path d="M2153.39 198.65C2185.03 198.65 2209.75 207.69 2227.57 225.77C2245.65 243.849 2254.69 268.31 2254.69 299.152C2254.69 320.156 2250.17 338.901 2241.13 355.385C2232.09 371.869 2219.33 384.897 2202.84 394.469C2186.36 404.04 2166.95 408.826 2144.61 408.826C2113.24 408.826 2088.52 399.786 2070.44 381.707C2052.62 363.627 2043.71 339.299 2043.71 308.723C2043.71 287.453 2048.23 268.576 2057.27 252.092C2066.31 235.607 2079.08 222.579 2095.56 213.008C2112.05 203.436 2131.32 198.65 2153.39 198.65ZM2147.41 355.784C2160.97 355.784 2171.73 350.732 2179.71 340.629C2187.95 330.26 2192.07 316.434 2192.07 299.152C2192.07 284.263 2188.48 272.697 2181.31 264.455C2174.13 255.947 2164.29 251.693 2151.79 251.693C2137.97 251.693 2126.93 256.877 2118.69 267.247C2110.72 277.35 2106.73 291.043 2106.73 308.325C2106.73 323.214 2110.18 334.912 2117.1 343.42C2124.28 351.663 2134.38 355.784 2147.41 355.784Z" fill="#1C1C1C"/>
<path d="M1879.76 488.589C1871.78 488.589 1863.01 487.925 1853.44 486.595C1844.13 485.532 1835.22 483.803 1826.72 481.411C1818.21 479.018 1810.9 475.827 1804.78 471.839L1819.54 419.993C1828.31 424.513 1837.88 428.102 1848.25 430.761C1858.89 433.686 1870.59 435.148 1883.35 435.148C1905.68 435.148 1921.5 430.096 1930.81 419.993C1940.11 409.89 1945.43 394.07 1946.76 372.534L1947.16 368.945C1932.8 390.215 1911.53 400.85 1883.35 400.85C1864.74 400.85 1848.92 396.995 1835.89 389.284C1822.86 381.574 1812.89 370.806 1805.98 356.98C1799.06 343.155 1795.61 327.202 1795.61 309.122C1795.61 287.32 1800.13 268.177 1809.17 251.693C1818.47 235.208 1830.97 222.313 1846.66 213.008C1862.34 203.436 1880.16 198.65 1900.1 198.65C1913.39 198.65 1924.96 201.309 1934.79 206.627C1944.9 211.678 1952.61 218.458 1957.93 226.966L1963.11 202.639H2006.98V365.355C2006.98 393.006 2001.66 415.872 1991.03 433.952C1980.66 452.297 1965.9 465.99 1946.76 475.03C1927.88 484.069 1905.55 488.589 1879.76 488.589ZM1906.48 251.693C1891.59 251.693 1879.89 256.745 1871.38 266.848C1862.88 276.951 1858.62 289.713 1858.62 305.134C1858.62 318.694 1861.94 329.196 1868.59 336.641C1875.5 344.085 1884.81 347.807 1896.51 347.807C1905.81 347.807 1914.19 345.414 1921.63 340.629C1929.08 335.843 1934.93 329.196 1939.18 320.688C1943.7 312.18 1945.96 302.475 1945.96 291.574C1945.96 279.344 1942.37 269.64 1935.19 262.461C1928.01 255.282 1918.44 251.693 1906.48 251.693Z" fill="#1C1C1C"/>
<path d="M1557.52 404.838V201.841H1618.14L1615.34 245.312C1623.59 230.423 1634.09 218.99 1646.85 211.014C1659.88 202.771 1674.37 198.65 1690.32 198.65C1714.52 198.65 1732.6 206.893 1744.56 223.377C1756.53 239.595 1762.37 262.993 1762.11 293.568L1761.31 404.838H1700.29L1701.09 297.955C1701.36 284.13 1699.23 273.628 1694.71 266.449C1690.45 259.004 1683.54 255.282 1673.97 255.282C1665.99 255.282 1658.68 257.675 1652.04 262.461C1645.39 266.981 1639.54 274.824 1634.49 285.991C1629.7 297.158 1625.85 312.446 1622.92 331.855C1620 351.264 1618.4 375.592 1618.14 404.838H1557.52Z" fill="#1C1C1C"/>
<path d="M1385.51 488.594C1377.26 488.594 1368.49 487.929 1359.18 486.6C1349.88 485.537 1340.84 483.808 1332.07 481.415C1323.56 479.022 1316.38 475.832 1310.53 471.844L1324.89 419.998C1334.19 424.518 1343.9 428.107 1354 430.766C1364.37 433.69 1376.07 435.153 1389.1 435.153C1411.16 435.153 1426.85 430.101 1436.16 419.998C1445.73 409.894 1451.18 394.075 1452.51 372.539L1453.7 356.187C1445.46 370.279 1435.09 381.313 1422.6 389.289C1410.1 396.999 1396.01 400.855 1380.32 400.855C1356.39 400.855 1338.45 392.878 1326.48 376.926C1314.52 360.973 1308.67 338.639 1308.93 309.925L1309.73 201.846H1370.75L1369.95 305.538C1369.95 317.502 1372.08 326.941 1376.33 333.854C1380.59 340.766 1387.5 344.223 1397.07 344.223C1407.97 344.223 1417.41 339.836 1425.39 331.062C1433.36 322.288 1439.61 307.665 1444.13 287.192C1448.65 266.454 1451.18 238.005 1451.71 201.846H1510.73V365.36C1510.73 407.9 1499.43 439.008 1476.83 458.683C1454.5 478.624 1424.06 488.594 1385.51 488.594Z" fill="#1C1C1C"/>
<path d="M1255.22 408.819C1234.74 408.819 1218.92 403.235 1207.76 392.068C1196.86 380.636 1191.41 364.151 1191.41 342.615V109.707H1252.42V338.228C1252.42 350.459 1258.14 356.574 1269.57 356.574C1275.69 356.574 1280.87 355.112 1285.13 352.187L1299.88 395.658C1295.36 399.38 1289.12 402.438 1281.14 404.831C1273.16 407.489 1264.52 408.819 1255.22 408.819Z" fill="#1C1C1C"/>
<path d="M792.069 198.651C804.828 198.652 816.123 201.314 825.959 206.629C835.796 211.681 843.381 218.458 848.698 226.966L853.883 202.64H897.751V404.842H836.328L838.329 374.527C823.706 397.393 802.034 408.831 773.319 408.831C755.24 408.831 739.822 404.703 727.06 396.461C714.298 388.219 704.587 376.792 697.94 362.169C691.294 347.547 687.974 330.795 687.974 311.921C687.974 289.321 692.624 269.503 701.93 252.486C711.235 235.473 723.733 222.315 739.418 213.01C755.104 203.438 772.66 198.651 792.069 198.651ZM1144.28 404.83H1082.86L1084.86 374.918C1070.24 397.517 1048.57 408.819 1019.85 408.819C1001.77 408.819 986.353 404.692 973.592 396.449C960.83 388.207 951.119 376.78 944.472 362.157C937.826 347.535 934.506 330.785 934.505 311.909C934.505 289.311 939.157 269.502 948.461 252.486C957.767 235.471 970.263 222.303 985.95 212.998C1001.64 203.426 1019.19 198.639 1038.6 198.639C1047.64 198.64 1056.01 199.971 1063.72 202.628C1071.43 205.287 1078.08 209.017 1083.66 213.803L1083.26 201.835V109.707H1144.28V404.83ZM798.047 251.693C783.426 251.693 771.86 257.142 763.352 268.04C755.11 278.941 750.983 292.904 750.983 309.92C750.983 324.543 754.178 335.845 760.559 343.822C767.205 351.796 776.111 355.788 787.275 355.789C800.833 355.789 812.399 350.202 821.97 339.039C831.807 327.873 836.731 313.239 836.731 295.159C836.73 281.602 833.273 270.968 826.361 263.258C819.449 255.549 810.011 251.693 798.047 251.693ZM1044.58 251.681C1029.96 251.681 1018.39 257.139 1009.88 268.04C1001.64 278.94 997.515 292.895 997.514 309.908C997.514 324.531 1000.71 335.834 1007.09 343.81C1013.74 351.785 1022.64 355.776 1033.81 355.777C1047.37 355.777 1058.93 350.192 1068.5 339.028C1078.34 327.861 1083.26 313.237 1083.26 295.159C1083.26 281.599 1079.81 270.957 1072.89 263.246C1065.98 255.538 1056.54 251.682 1044.58 251.681Z" fill="#FF501C"/>
<path d="M0 103.896C0 46.5159 46.5158 0 103.896 0H496.103C553.483 0 599.999 46.5159 599.999 103.896V496.104C599.999 553.484 553.483 600 496.103 600H103.896C46.5158 600 0 553.484 0 496.104V103.896Z" fill="#1C1C1C"/>
<path d="M140.05 391.217L94.2921 491.404C90.6721 499.33 97.8738 507.905 106.332 505.739L214.886 477.942C217.934 477.162 220.463 475.046 221.764 472.188L272.524 360.672C276.296 352.385 268.295 343.62 259.67 346.591L146.113 385.718C143.422 386.645 141.23 388.633 140.05 391.217Z" fill="#FEFEFF"/>
<path d="M348.071 248.641L210.089 293.158C201.93 295.791 194.266 287.989 197.072 279.906L224.1 202.052C225.097 199.178 227.311 196.886 230.153 195.784L492.502 94.0554C500.191 91.0739 508.129 97.7889 506.436 105.842L446.7 389.989C446.036 393.147 443.935 395.817 441.016 397.21L343.464 443.776C335.783 447.443 327.183 440.842 328.77 432.497L361.478 260.432C362.948 252.699 355.579 246.218 348.071 248.641Z" fill="url(#paint0_linear_1120_1724)"/>
<path d="M344.284 506.667C378.794 506.667 428.546 505.952 459.457 503.883C490.369 501.814 489.699 443.468 458.771 434.834C427.842 426.2 355.601 473.603 344.284 506.667Z" fill="#FF501C"/>
<defs>
<linearGradient id="paint0_linear_1120_1724" x1="422.837" y1="411.982" x2="473.935" y2="-121.127" gradientUnits="userSpaceOnUse">
<stop offset="0.132381" stop-color="#FF501C"/>
<stop offset="0.634466" stop-color="#F6A01B"/>
</linearGradient>
</defs>
</svg>
